<svg xmlns="http://www.w3.org/2000/svg" viewBox="270 60 450 160" fill="none">
  <path d="M270 160.699V70H288.929V125.074C296.574 116.603 308.052 111.014 320.671 111.014C349.158 111.014 369.623 132.004 369.623 160.699C369.623 187.854 348.205 210 319.906 210C291.607 210 270 188.625 270 160.699ZM350.689 160.51C350.689 143.373 337.304 129.123 319.906 129.123C302.507 129.123 288.929 143.373 288.929 160.51C288.929 177.647 302.313 192.092 319.906 192.092C337.499 192.092 350.689 177.842 350.689 160.51Z" fill="#1a1a1a"/>
  <path d="M401.336 70V207.688H382.407V70H401.336Z" fill="#1a1a1a"/>
  <path d="M414.12 159.929C414.12 132.774 433.431 110.628 461.542 110.628C489.653 110.628 507.434 131.233 507.434 157.617V165.317H432.478C434.579 181.494 446.816 192.857 463.643 192.857C475.115 192.857 485.438 187.848 490.989 177.451L505.521 184.961C497.298 201.138 482.195 209.804 463.838 209.804C435.344 209.804 414.12 189.004 414.12 159.929ZM488.499 152.999C487.734 137.979 476.833 127.771 461.348 127.771C445.862 127.771 435.15 138.939 433.243 152.999H488.505H488.499Z" fill="#1a1a1a"/>
  <path d="M520.212 159.929C520.212 132.774 539.523 110.628 567.634 110.628C595.745 110.628 613.526 131.233 613.526 157.617V165.317H538.57C540.671 181.494 552.908 192.857 569.735 192.857C581.207 192.857 591.536 187.848 597.081 177.451L611.613 184.961C603.39 201.138 588.287 209.804 569.929 209.804C541.442 209.804 520.218 189.004 520.218 159.929H520.212ZM594.591 152.999C593.826 137.979 582.925 127.771 567.44 127.771C551.954 127.771 541.242 138.939 539.335 152.999H594.597H594.591Z" fill="#1a1a1a"/>
  <path d="M645.238 162.051V207.688H626.31V160.124C626.31 132.584 642.56 111.02 672.772 111.02C702.984 111.02 720 132.59 720 159.935V207.694H701.071V162.247C701.071 144.529 691.513 129.318 672.772 129.318C654.032 129.318 645.238 144.529 645.238 162.057V162.051Z" fill="#1a1a1a"/>
</svg>
